<?xml version="1.0" encoding="utf-8"?>
<!-- Generator: Adobe Illustrator 28.3.0, SVG Export Plug-In . SVG Version: 6.00 Build 0)  -->
<svg version="1.1" xmlns="http://www.w3.org/2000/svg" xmlns:xlink="http://www.w3.org/1999/xlink" x="0px" y="0px"
	 viewBox="0 0 5000 5000" style="enable-background:new 0 0 5000 5000;" xml:space="preserve">
<style type="text/css">
	.st0{display:none;}
	.st1{display:inline;}
	.st2{fill:#FFFFFF;}
	.st3{display:inline;fill:#FFFFFF;}
	.st4{fill:#3F3B3A;}
</style>
<g id="图层_2">
</g>
<g id="图层_1" class="st0">
	<g class="st1">
		<polygon class="st2" points="3382.994,2410.228 3498.86,2410.228 3498.86,2579.592 3554.295,2579.592 3554.295,2410.228 
			3667.782,2410.228 3667.782,2364.547 3382.994,2364.547 		"/>
		<rect x="3717.105" y="2364.034" class="st2" width="56.262" height="215.669"/>
		<path class="st2" d="M4167.122,2419.203v105.436c0,30.469,24.7,55.169,55.169,55.169h207.533c30.469,0,55.168-24.7,55.168-55.169
			v-70.09h-48.151h-16.375h-99.215v38.349h115.59v15.205c0,16.199-13.132,29.332-29.332,29.332h-157.105
			c-16.2,0-29.332-13.133-29.332-29.332v-78.141c0-16.2,13.132-29.332,29.332-29.332h170.062h16.375h48.151v-36.595h-262.701
			C4191.822,2364.034,4167.122,2388.734,4167.122,2419.203z"/>
		<path class="st2" d="M3818.218,2419.203v105.436c0,30.469,24.7,55.169,55.169,55.169h207.533c30.469,0,55.168-24.7,55.168-55.169
			v-70.09h-48.151h-16.375h-99.215v38.349h115.591v15.205c0,16.199-13.132,29.332-29.332,29.332H3901.5
			c-16.2,0-29.332-13.133-29.332-29.332v-78.141c0-16.2,13.132-29.332,29.332-29.332h170.062h16.375h48.151v-36.595h-262.701
			C3842.918,2364.034,3818.218,2388.734,3818.218,2419.203z"/>
		<path class="st2" d="M4798.942,2363.81h-218.704c-31.451,0-56.947,25.496-56.947,56.946v102.001
			c0,31.45,25.496,56.946,56.947,56.946h218.704c31.451,0,56.946-25.496,56.946-56.946v-102.001
			C4855.889,2389.305,4830.393,2363.81,4798.942,2363.81z M4803.374,2509.248c0,16.236-13.162,29.398-29.398,29.398h-164.88
			c-16.236,0-29.397-13.162-29.397-29.398v-75.207c0-16.236,13.162-29.398,29.397-29.398h164.88
			c16.236,0,29.398,13.162,29.398,29.398V2509.248z"/>
	</g>
	
		<rect x="3113.394" y="2467.873" transform="matrix(-1.836970e-16 1 -1 -1.836970e-16 5716.3022 -774.0512)" class="st3" width="263.565" height="6.506"/>
	<g class="st1">
		<g>
			<path class="st2" d="M2718.468,2429.107c0-34.991-28.41-63.354-63.456-63.354h-278.778l25.383,42.236h193.566h59.829
				c11.682,0,21.152,9.454,21.152,21.117s-9.47,21.119-21.152,21.119h-59.829h-218.949v42.236v84.473h50.764v-84.473h187.628
				l48.847,84.473h54.995l-49.718-85.98C2697.188,2484.689,2718.468,2459.386,2718.468,2429.107z"/>
			<polygon class="st2" points="1888.819,2450.226 1648.114,2450.226 1648.114,2365.753 1597.349,2365.753 1597.349,2450.226 
				1597.349,2492.464 1597.349,2576.937 1648.114,2576.937 1648.114,2492.464 1888.819,2492.464 1888.819,2576.937 
				1939.581,2576.937 1939.581,2492.464 1939.581,2450.226 1939.581,2365.753 1888.819,2365.753 			"/>
			<path class="st2" d="M1258.81,2471.341c0.002-34.989,28.41-63.352,63.454-63.352h76.147h21.151h105.336l25.381-42.236h-130.717
				h-105.759c-7.244,0-14.316,0.731-21.151,2.116c-25.808,5.232-48.201,19.844-63.456,40.121
				c-13.278,17.648-21.151,39.583-21.151,63.356c0,7.232,0.733,14.294,2.119,21.117c3.173,15.605,9.792,29.958,19.031,42.237
				c15.255,20.276,37.648,34.891,63.456,40.121c6.834,1.384,13.907,2.118,21.151,2.118h105.759h105.336l25.381-42.238h-130.717
				h-21.151h-76.143h-0.004h-0.004c-27.625-0.002-51.114-17.633-59.825-42.237c-2.34-6.606-3.625-13.708-3.625-21.115v-0.002
				V2471.341z"/>
			<polygon class="st2" points="3036.892,2365.755 2916.367,2458.347 2795.844,2365.755 2721.393,2365.755 2886.323,2492.464 
				2886.323,2576.935 2943.773,2576.935 2943.773,2492.464 3108.702,2365.755 			"/>
			<path class="st2" d="M2037.694,2428.581c0.283-11.412,9.615-20.583,21.11-20.591h0.029h51.383h193.564l25.383-42.236h-278.778
				c-35.046,0-63.455,28.365-63.455,63.354v21.119v42.236v21.117v63.355h65.09h251.761l25.383-42.236h-218.948h-51.379h-0.035
				h-21.108v-20.591v-1.056v-20.589h12.691h8.423h0.021h51.387h142.802l25.381-42.236h-168.183h-51.383h-0.029h-21.11v-20.591
				V2428.581z"/>
		</g>
		<path class="st2" d="M865.318,2373.091c-56.382-16.876-127.386-28.443-205.896-32.317c-18.366-0.913-37.141-1.397-56.233-1.434
			h-4.601c-19.092,0.037-37.849,0.522-56.214,1.434c-78.529,3.874-149.533,15.423-205.915,32.317
			c-80.764,24.159-131.558,59.232-131.558,98.254c0,33.043,36.452,63.274,96.652,86.427c24.438,9.387,52.806,17.639,84.247,24.419
			c25.574,5.532,53.197,10.114,82.403,13.56c41.481,4.918,86.147,7.6,132.694,7.6c46.529,0,91.195-2.682,132.676-7.6
			c29.207-3.446,56.83-8.028,82.404-13.56c31.441-6.78,59.809-15.031,84.247-24.419c60.219-23.152,96.652-53.384,96.652-86.427
			C996.877,2432.323,946.083,2397.25,865.318,2373.091z M369.316,2508.693c-16.48,11.938-38.135,14.314-56.668,5.909
			c-34.773-15.771-54.96-34.58-54.96-54.769c0-25.332,31.795-48.503,84.303-66.217c56.997-19.222,138.413-32.056,230.036-34.291
			c1.23-0.037,2.44-0.056,3.67-0.074c5.532-0.131,11.064-0.205,16.652-0.242c-3.744,0.578-7.339,1.528-10.785,2.813
			c-0.037,0.018-0.093,0.018-0.13,0.037c-1.155,0.447-2.31,0.912-3.427,1.434c-0.055-0.037-0.111-0.074-0.167-0.111
			c-13.746,5.513-32.336,18.123-38.352,22.314l-1.025,0.726c-0.596,0.428-0.931,0.671-0.931,0.671l-146.459,106.04L369.316,2508.693
			z M739.442,2552.109c-42.375,5.513-89.258,8.568-138.543,8.568c-49.304,0-96.168-3.055-138.543-8.568
			c-38.706-6.985-20.061-33.23-9.928-44.498c0.093-0.112,0.186-0.224,0.316-0.336c2.459-2.719,4.359-4.508,4.694-4.806
			c0.037-0.037,0.056-0.056,0.056-0.056c6.575-6.668,13.299-13.318,20.154-19.93c22.668-21.904,45.579-42.319,68.34-61.057
			c7.041-5.812,14.082-11.474,21.085-16.95c0,0,0.019-0.019,0.056-0.037c0.037-0.037,0.075-0.074,0.149-0.13
			c0.335-0.279,1.08-0.875,2.16-1.657c5.383-4.005,19.073-13.169,31.46-13.132c12.368-0.037,26.059,9.127,31.442,13.132
			c0.279,0.186,0.522,0.372,0.745,0.558c0.224,0.168,0.447,0.336,0.615,0.466c0.279,0.205,0.503,0.392,0.652,0.522
			c0.112,0.074,0.186,0.149,0.242,0.186c0.075,0.056,0.112,0.093,0.112,0.093c7.004,5.476,14.044,11.139,21.103,16.95
			c22.743,18.738,45.654,39.153,68.322,61.057c6.854,6.612,13.579,13.262,20.153,19.93c0,0,0.019,0.018,0.056,0.056
			c0.037,0.037,0.112,0.093,0.186,0.186c0.615,0.559,2.31,2.198,4.433,4.526l0.018,0.019
			C759.037,2518.228,778.594,2545.031,739.442,2552.109z M889.13,2514.603c-18.533,8.405-40.189,6.029-56.668-5.909l-21.756-15.76
			l-146.46-106.04c0,0-0.167-0.112-0.484-0.354l-0.447-0.317l-1.025-0.726c-6.016-4.191-24.605-16.801-38.352-22.314
			c-0.056,0.037-0.112,0.074-0.168,0.111c-1.08-0.502-2.179-0.968-3.297-1.378c-0.093-0.037-0.167-0.074-0.261-0.093
			c-3.446-1.285-7.041-2.235-10.766-2.813c5.588,0.037,11.12,0.112,16.633,0.242h0.019c1.23,0.019,2.422,0.037,3.651,0.074
			c91.623,2.235,173.02,15.05,230.017,34.291h0.019c52.508,17.714,84.303,40.885,84.303,66.217
			C944.09,2480.022,923.902,2498.833,889.13,2514.603z"/>
	</g>
</g>
<g id="图层_3">
	<g>
		<g>
			<polygon class="st4" points="2001.792,2942.799 1556.904,2942.799 1556.904,2786.424 1463.079,2786.424 1463.079,2942.799 
				1463.079,3020.989 1463.079,3177.364 1556.904,3177.364 1556.904,3020.989 2001.792,3020.989 2001.792,3177.364 
				2095.614,3177.364 2095.614,3020.989 2095.614,2942.799 2095.614,2786.424 2001.792,2786.424 			"/>
			<path class="st4" d="M837.368,2981.887c0.004-64.771,52.509-117.276,117.279-117.276h140.74h39.092h194.688l46.911-78.187
				h-241.599h-195.47c-13.388,0-26.46,1.354-39.092,3.917c-47.7,9.685-89.088,36.735-117.283,74.271
				c-24.541,32.67-39.092,73.275-39.092,117.283c0,13.388,1.354,26.46,3.917,39.092c5.864,28.888,18.098,55.458,35.175,78.187
				c28.195,37.535,69.583,64.589,117.283,74.271c12.631,2.562,25.703,3.92,39.092,3.92h195.47h194.688l46.911-78.191h-241.599
				h-39.092H954.654h-0.007h-0.007c-51.059-0.003-94.472-32.641-110.572-78.187c-4.325-12.23-6.7-25.376-6.7-39.088v-0.003V2981.887
				z"/>
			<path class="st4" d="M3535.201,2903.703c0-64.774-52.509-117.279-117.283-117.279h-515.256l46.915,78.187h357.762h110.579
				c21.591,0,39.095,17.5,39.095,39.092s-17.504,39.095-39.095,39.095h-110.579h-404.676v78.187v156.374h93.825v-156.374h346.787
				l90.282,156.374h101.645l-91.892-159.164C3495.871,3006.595,3535.201,2959.755,3535.201,2903.703z"/>
			<polygon class="st4" points="4123.732,2786.428 3900.97,2957.833 3678.212,2786.428 3540.607,2786.428 3845.441,3020.989 
				3845.441,3177.36 3951.624,3177.36 3951.624,3020.989 4256.458,2786.428 			"/>
			<path class="st4" d="M2276.952,2902.729c0.522-21.125,17.771-38.104,39.017-38.118h0.053h94.97h357.758l46.915-78.187h-515.256
				c-64.774,0-117.282,52.509-117.282,117.279v39.095v78.187v39.092v117.282h120.303h465.32l46.915-78.187h-404.673h-94.963h-0.064
				h-39.014v-38.118v-1.955v-38.114h23.457h15.567h0.039h94.977h263.937l46.911-78.187h-310.847h-94.97h-0.053h-39.017v-38.118
				V2902.729z"/>
		</g>
		<path class="st4" d="M3133.699,1912.46c-150.053-44.912-339.022-75.696-547.967-86.007c-48.878-2.429-98.847-3.718-149.658-3.817
			h-12.244c-50.811,0.099-100.729,1.388-149.608,3.817c-208.995,10.31-397.964,41.046-548.018,86.007
			c-214.943,64.296-350.126,157.639-350.126,261.492c0,87.941,97.013,168.397,257.228,230.015
			c65.039,24.983,140.537,46.944,224.214,64.988c68.062,14.723,141.578,26.917,219.306,36.089
			c110.397,13.088,229.27,20.226,353.151,20.226c123.831,0,242.704-7.138,353.101-20.226c77.73-9.171,151.245-21.366,219.308-36.089
			c83.677-18.044,159.175-40.005,224.214-64.988c160.265-61.618,257.228-142.074,257.228-230.015
			C3483.826,2070.099,3348.644,1976.756,3133.699,1912.46z M1813.649,2273.35c-43.858,31.77-101.493,38.095-150.814,15.727
			c-92.543-41.971-146.271-92.031-146.271-145.76c0-67.417,84.618-129.086,224.361-176.229
			c151.691-51.157,368.369-85.313,612.213-91.261c3.272-0.099,6.494-0.149,9.767-0.198c14.723-0.347,29.445-0.546,44.317-0.645
			c-9.964,1.537-19.531,4.065-28.702,7.487c-0.099,0.048-0.248,0.048-0.347,0.099c-3.073,1.188-6.147,2.428-9.122,3.816
			c-0.147-0.098-0.296-0.197-0.445-0.297c-36.583,14.673-86.057,48.233-102.069,59.387l-2.727,1.933
			c-1.585,1.14-2.479,1.785-2.479,1.785l-389.783,282.213L1813.649,2273.35z M2798.693,2388.896
			c-112.776,14.673-237.55,22.802-368.717,22.802c-131.217,0-255.939-8.129-368.716-22.802
			c-103.011-18.59-53.389-88.437-26.422-118.427c0.248-0.298,0.496-0.595,0.842-0.893c6.544-7.237,11.6-11.996,12.492-12.79
			c0.099-0.099,0.149-0.148,0.149-0.148c17.499-17.747,35.395-35.445,53.637-53.043c60.329-58.295,121.302-112.627,181.879-162.496
			c18.739-15.467,37.477-30.537,56.116-45.111c0,0,0.05-0.05,0.149-0.099c0.099-0.099,0.198-0.198,0.397-0.347
			c0.892-0.743,2.875-2.33,5.75-4.411c14.326-10.657,50.761-35.048,83.727-34.948c32.916-0.099,69.352,24.291,83.678,34.948
			c0.743,0.496,1.388,0.991,1.982,1.486c0.595,0.447,1.19,0.893,1.636,1.239c0.743,0.546,1.339,1.042,1.734,1.389
			c0.298,0.197,0.496,0.396,0.645,0.495c0.198,0.149,0.298,0.248,0.298,0.248c18.639,14.574,37.377,29.644,56.164,45.111
			c60.528,49.868,121.502,104.2,181.831,162.496c18.242,17.598,36.138,35.296,53.636,53.043c0,0,0.051,0.048,0.149,0.148
			c0.099,0.099,0.298,0.248,0.496,0.496c1.636,1.487,6.147,5.849,11.799,12.046l0.048,0.05
			C2850.843,2298.724,2902.893,2370.059,2798.693,2388.896z M3197.07,2289.077c-49.323,22.369-106.957,16.044-150.816-15.727
			l-57.9-41.944l-389.785-282.213c0,0-0.445-0.298-1.289-0.942l-1.19-0.844l-2.727-1.933
			c-16.012-11.154-65.484-44.714-102.068-59.387c-0.149,0.099-0.298,0.198-0.447,0.297c-2.874-1.337-5.799-2.577-8.774-3.668
			c-0.248-0.099-0.445-0.198-0.694-0.247c-9.171-3.421-18.738-5.95-28.653-7.487c14.872,0.099,29.594,0.298,44.267,0.645h0.05
			c3.272,0.05,6.445,0.099,9.717,0.198c243.844,5.948,460.473,40.053,612.163,91.261h0.051
			c139.743,47.143,224.361,108.811,224.361,176.229C3343.339,2197.046,3289.611,2247.107,3197.07,2289.077z"/>
	</g>
</g>
</svg>
